<?xml version="1.0" encoding="utf-8"?>
<!-- Generator: Adobe Illustrator 26.3.1, SVG Export Plug-In . SVG Version: 6.00 Build 0)  -->
<svg version="1.1" id="Layer_1" xmlns="http://www.w3.org/2000/svg" xmlns:xlink="http://www.w3.org/1999/xlink" x="0px" y="0px"
	 viewBox="0 0 84.3 83.5" style="enable-background:new 0 0 84.3 83.5;" xml:space="preserve">
<style type="text/css">
	.st0{fill:url(#SVGID_1_);}
	.st1{fill:#FFFFFF;}
</style>
<g>
	
		<linearGradient id="SVGID_1_" gradientUnits="userSpaceOnUse" x1="2.0323" y1="2.7321" x2="82.5583" y2="83.2581" gradientTransform="matrix(1 0 0 -1 0 84.5161)">
		<stop  offset="0" style="stop-color:#00ABDA"/>
		<stop  offset="1" style="stop-color:#009BC6"/>
	</linearGradient>
	<path class="st0" d="M82.6,72.8c0,4.9-4,8.9-8.9,8.9H11c-4.9,0-8.9-4-8.9-8.9V10.2C2,5.3,6,1.3,11,1.3h62.6c4.9,0,8.9,4,8.9,8.9
		V72.8z"/>
</g>
<path class="st1" d="M38.9,26.3h-4.1c-3.3,0-4.7-2.4-4.7-4.8c0-2.4,1.7-4.8,4.7-4.8h9.8c3,0,4.6,2.1,4.6,4.9v39.5
	c0,3.5-2.2,5.4-5.2,5.4c-3,0-5.2-1.9-5.2-5.4V26.3z"/>
</svg>
